<svg width="24" height="25" viewBox="0 0 24 25" fill="none" xmlns="http://www.w3.org/2000/svg">
  <path d="M9 4.62891C7.94444 4.62891 6.88889 4.96224 6 5.62891L3.8 7.27891C3.29639 7.65661 3 8.24939 3 8.87891V17.5079C3 19.1029 4.82083 20.0133 6.09677 19.0563C6.95699 18.4112 7.97849 18.0886 9 18.0886M9 4.62891C10.0556 4.62891 11.1111 4.96224 12 5.62891L12.0968 5.70149C12.957 6.34665 13.9785 6.66923 15 6.66923M9 4.62891V5.37891V17.3789V18.0886M15 6.66923C16.0215 6.66923 17.043 6.34665 17.9032 5.70149C19.1792 4.74453 21 5.65495 21 7.24987V15.8789C21 16.5084 20.7036 17.1012 20.2 17.4789L18 19.1289C17.1111 19.7956 16.0556 20.1289 15 20.1289M15 6.66923V7.37891V19.3789V20.1289M15 20.1289C13.9444 20.1289 12.8889 19.7956 12 19.1289L11.9032 19.0563C11.043 18.4112 10.0215 18.0886 9 18.0886" stroke="#9FA936" stroke-width="1.5" stroke-linecap="round" />
</svg>