<svg width="30" height="30" viewBox="0 0 30 30" fill="none" xmlns="http://www.w3.org/2000/svg">
  <path d="M8.21799 9.09202C8 9.51984 8 10.0799 8 11.2V15.3C8 16.4201 8 16.9802 8.21799 17.408C8.40973 17.7843 8.71569 18.0903 9.09202 18.282C9.39717 18.4375 9.7696 18.4821 10.3645 18.4949V22L15.875 18.5L18.8 18.5C19.9201 18.5 20.4802 18.5 20.908 18.282C21.2843 18.0903 21.5903 17.7843 21.782 17.408C22 16.9802 22 16.4201 22 15.3V11.2C22 10.0799 22 9.51984 21.782 9.09202C21.5903 8.71569 21.2843 8.40973 20.908 8.21799C20.4802 8 19.9201 8 18.8 8H11.2C10.0799 8 9.51984 8 9.09202 8.21799C8.71569 8.40973 8.40973 8.71569 8.21799 9.09202Z" stroke="black" stroke-linejoin="round" />
</svg>