<svg width="25" height="24" viewBox="0 0 25 24" fill="none" xmlns="http://www.w3.org/2000/svg">
  <path d="M7.23047 18H21.2305M7.23047 12H21.2305M7.23047 6H21.2305" stroke="#B9C350" stroke-width="2" stroke-linecap="round" />
  <path d="M5.23047 12C5.23047 12.5523 4.78275 13 4.23047 13C3.67818 13 3.23047 12.5523 3.23047 12C3.23047 11.4477 3.67818 11 4.23047 11C4.78275 11 5.23047 11.4477 5.23047 12Z" fill="#B9C350" />
  <path d="M5.23047 6C5.23047 6.55228 4.78275 7 4.23047 7C3.67818 7 3.23047 6.55228 3.23047 6C3.23047 5.44772 3.67818 5 4.23047 5C4.78275 5 5.23047 5.44772 5.23047 6Z" fill="#B9C350" />
  <path d="M5.23047 18C5.23047 18.5523 4.78275 19 4.23047 19C3.67818 19 3.23047 18.5523 3.23047 18C3.23047 17.4477 3.67818 17 4.23047 17C4.78275 17 5.23047 17.4477 5.23047 18Z" fill="#B9C350" />
</svg>