<svg width="21" height="20" viewBox="0 0 21 20" fill="none" xmlns="http://www.w3.org/2000/svg">
  <g clip-path="url(#clip0_2014_7841)">
    <path fill-rule="evenodd" clip-rule="evenodd" d="M6.5 3C4.29086 3 2.5 4.79086 2.5 7C2.5 8.21767 3.04286 9.30748 3.90329 10.0427L3.92165 10.0584L10.4999 16.2528L17.0824 10.0549L17.1003 10.0396C17.9586 9.30445 18.5 8.21598 18.5 7C18.5 4.79086 16.7091 3 14.5 3C13.1922 3 12.031 3.6266 11.2995 4.60019L10.5 5.66431L9.70051 4.60019C8.96903 3.6266 7.80784 3 6.5 3ZM0.5 7C0.5 3.68629 3.18629 1 6.5 1C8.03707 1 9.43917 1.57863 10.5 2.52791C11.5608 1.57863 12.9629 1 14.5 1C17.8137 1 20.5 3.68629 20.5 7C20.5 8.81571 19.6923 10.4438 18.4199 11.5426L10.4998 18.9998L2.5849 11.5468C1.3098 10.448 0.5 8.81802 0.5 7Z" fill="#B9C350" />
  </g>
  <defs>
    <clipPath id="clip0_2014_7841">
      <rect width="20" height="20" fill="white" transform="translate(0.5)" />
    </clipPath>
  </defs>
</svg>