<svg width="19" height="18" viewBox="0 0 19 18" fill="none" xmlns="http://www.w3.org/2000/svg">
  <g clip-path="url(#clip0_2014_7861)">
    <path fill-rule="evenodd" clip-rule="evenodd" d="M4.86523 5C4.86523 2.23858 7.1038 0 9.86523 0C12.6267 0 14.8652 2.23858 14.8652 5C14.8652 7.76142 12.6267 10 9.86523 10C7.1038 10 4.86523 7.76142 4.86523 5ZM9.86523 2C8.20837 2 6.86523 3.34315 6.86523 5C6.86523 6.65685 8.20837 8 9.86523 8C11.5221 8 12.8652 6.65685 12.8652 5C12.8652 3.34315 11.5221 2 9.86523 2Z" fill="#B9C350" />
    <path d="M18.8296 16.7337C18.1223 13.9504 15.6162 12 12.7423 12H6.98857C4.10653 12 1.59433 13.9615 0.895328 16.7575C0.76138 17.2933 1.08714 17.8362 1.62293 17.9701C2.15873 18.1041 2.70166 17.7783 2.83561 17.2425C3.31203 15.3369 5.02426 14 6.98857 14H12.7423C14.7004 14 16.408 15.3284 16.8907 17.2243C16.9925 17.6686 17.3903 18 17.8654 18C18.4177 18 18.8654 17.5523 18.8654 17C18.8654 16.9078 18.853 16.8185 18.8296 16.7337Z" fill="#B9C350" />
  </g>
  <defs>
    <clipPath id="clip0_2014_7861">
      <rect width="18" height="18" fill="white" transform="translate(0.865234)" />
    </clipPath>
  </defs>
</svg>