<svg width="25" height="25" viewBox="0 0 25 25" fill="none" xmlns="http://www.w3.org/2000/svg">
  <path d="M18.8639 11.6924V11.1267C18.8639 11.0421 18.8639 10.9997 18.8634 10.9639C18.8247 8.25855 16.6409 6.07479 13.9355 6.03605C13.8997 6.03553 13.8574 6.03553 13.7728 6.03553H13.2071M22.3996 12.3995V11.4095C22.3996 10.5649 22.3996 10.1426 22.3677 9.78659C22.0226 5.93191 18.9677 2.87699 15.113 2.53187C14.757 2.5 14.3347 2.5 13.49 2.5L12.5001 2.5M9.27785 9.72339C8.82461 10.7632 9.054 11.9744 9.85605 12.7765L12.2529 15.1733C13.0549 15.9753 14.2661 16.2047 15.3059 15.7515C16.3457 15.2982 17.557 15.5276 18.359 16.3297L19.8172 17.7879C19.8878 17.8585 19.9232 17.8938 19.9518 17.925C20.6548 18.6901 20.6548 19.8662 19.9518 20.6314C19.9232 20.6625 19.8878 20.6978 19.8172 20.7685L18.9309 21.6548C18.2091 22.3766 17.1685 22.6796 16.1721 22.4582C9.38248 20.9494 4.07995 15.6468 2.57115 8.85725C2.34971 7.86079 2.65272 6.82026 3.37451 6.09846L4.26085 5.21212C4.3315 5.14147 4.36682 5.10615 4.39794 5.07756C5.1631 4.37448 6.33921 4.37448 7.10436 5.07756C7.13548 5.10615 7.17081 5.14147 7.24145 5.21212L8.69965 6.67032C9.5017 7.47237 9.73109 8.68361 9.27785 9.72339Z" stroke="white" stroke-width="1.5" stroke-linecap="round" />
</svg>