<svg width="30" height="30" viewBox="0 0 30 30" fill="none" xmlns="http://www.w3.org/2000/svg">
  <path d="M12.9277 13.8674L17.3977 11.8563M17.3808 18.1731L12.5052 15.9884M22 19.5C22 20.8807 20.8807 22 19.5 22C18.1193 22 17 20.8807 17 19.5C17 18.1193 18.1193 17 19.5 17C20.8807 17 22 18.1193 22 19.5ZM22 10.5C22 11.8807 20.8807 13 19.5 13C18.1193 13 17 11.8807 17 10.5C17 9.11929 18.1193 8 19.5 8C20.8807 8 22 9.11929 22 10.5ZM13 14.5C13 15.8807 11.8807 17 10.5 17C9.11929 17 8 15.8807 8 14.5C8 13.1193 9.11929 12 10.5 12C11.8807 12 13 13.1193 13 14.5Z" stroke="black" stroke-linecap="round" stroke-linejoin="round" />
</svg>