<svg width="27" height="23" viewBox="0 0 27 23" fill="none" xmlns="http://www.w3.org/2000/svg">
  <path fill-rule="evenodd" clip-rule="evenodd" d="M14.2854 17.7596C14.8929 18.1987 15.4605 18.6026 16.0273 19.0066C17.5453 20.0955 19.0574 21.1844 20.5829 22.2645C20.7688 22.4195 20.9903 22.5197 21.2249 22.5552C21.4595 22.5907 21.6988 22.5597 21.9185 22.466C22.1383 22.3724 22.3306 22.2192 22.4761 22.0218C22.6215 21.8244 22.7149 21.5896 22.7466 21.3417C22.8132 21.0344 22.879 20.7358 22.9439 20.4284C24.2549 14.3164 25.5656 8.20182 26.8761 2.08397C26.9317 1.90408 26.9469 1.71282 26.9205 1.52568C26.8941 1.33854 26.8268 1.16099 26.724 1.00599C26.6212 0.850991 26.4856 0.723178 26.328 0.632944C26.1704 0.542711 25.9951 0.491914 25.8159 0.485441C25.5102 0.475696 25.206 0.532871 24.9221 0.652669C16.8822 3.69696 8.84379 6.74975 0.806727 9.81161C0.593201 9.83497 0.396037 9.94347 0.255093 10.1143C0.114149 10.2852 0.0398893 10.5063 0.0473929 10.7326C0.0548966 10.959 0.143563 11.1738 0.295475 11.3338C0.447388 11.4939 0.65125 11.5869 0.865801 11.5945C2.71417 12.1214 4.55921 12.6655 6.41175 13.1836C6.57893 13.214 6.73417 13.2953 6.85869 13.4169C6.98321 13.5384 7.07168 13.6953 7.11333 13.8688C7.79076 16.0379 8.5006 18.1987 9.20217 20.359C9.25039 20.6476 9.40465 20.904 9.63138 21.0733C9.85812 21.2427 10.139 21.3108 10.4131 21.2628C10.7081 21.1917 10.9804 21.0403 11.2028 20.8238C12.2331 19.8227 13.2418 18.8047 14.2854 17.7596ZM9.88129 19.0674C9.8297 18.9357 9.76895 18.8133 9.72733 18.6815C9.1814 16.9691 8.6374 15.2508 8.09534 13.5266C8.03644 13.4369 7.99882 13.333 7.98573 13.2248C7.97264 13.1165 7.98446 13.0065 8.02012 12.904C8.05578 12.8016 8.11425 12.7101 8.19064 12.6365C8.26702 12.5629 8.35905 12.5094 8.45899 12.4812C12.8137 9.84677 17.1691 7.21586 21.5249 4.58724C21.5656 4.54494 21.6161 4.51414 21.6714 4.49891C21.8379 4.49891 21.9985 4.50814 22.1616 4.51692C22.1432 4.68315 22.0882 4.84192 22.001 4.98172C21.2894 5.63156 20.5571 6.24662 19.8314 6.87011C16.862 9.43434 13.8912 11.9929 10.9191 14.5454C10.7808 14.655 10.6669 14.7946 10.5851 14.9554C10.5033 15.1161 10.4557 15.2938 10.4455 15.4759C10.3515 16.5297 10.2192 17.584 10.0977 18.6378C10.0819 18.7783 10.0411 18.9098 10.0144 19.0503C9.96866 19.0591 9.92457 19.0587 9.88129 19.0674Z" fill="black" />
</svg>