<svg width="28" height="28" viewBox="0 0 28 28" fill="none" xmlns="http://www.w3.org/2000/svg">
  <path fill-rule="evenodd" clip-rule="evenodd" d="M14.0284 0.188965C13.3529 0.252732 12.656 0.273656 11.9912 0.379935C9.86963 0.695764 7.85211 1.49933 6.10004 2.72659C4.34798 3.95384 2.91004 5.57107 1.90132 7.44791C0.892592 9.32475 0.341035 11.4091 0.290868 13.5351C0.240701 15.6611 0.693298 17.7692 1.61239 19.6908C1.71034 19.911 1.74021 20.1553 1.69819 20.3924C1.26931 22.5498 0.818944 24.697 0.379345 26.8438C0.23996 27.5347 0.518762 27.7786 1.21569 27.6191C3.29574 27.1303 5.38648 26.6306 7.47726 26.163C7.74925 26.1037 8.0329 26.1265 8.29214 26.2273C10.1604 27.0733 12.1961 27.493 14.2497 27.4572C16.3034 27.4215 18.323 26.9303 20.1601 26.0198C21.9972 25.1093 23.6053 23.8033 24.8664 22.1962C26.1274 20.5892 27.0093 18.7219 27.4475 16.7328C27.8857 14.7437 27.869 12.6825 27.3986 10.7006C26.9281 8.71879 26.0161 6.86651 24.7291 5.27977C23.4421 3.69304 21.8129 2.41307 19.9613 1.53198C18.1096 0.650893 16.0824 0.191978 14.0284 0.188965ZM4.02483 23.9212C4.23927 22.8371 4.40007 21.8372 4.66812 20.8594C4.87779 20.0767 4.77806 19.2448 4.38934 18.5325C3.55954 16.839 3.19729 14.9579 3.33933 13.0805C3.48137 11.2031 4.12266 9.39627 5.198 7.84438C6.27334 6.29249 7.74434 5.05026 9.46118 4.24501C11.178 3.43975 13.0795 3.10017 14.9719 3.26006C17.543 3.47722 19.949 4.60569 21.7494 6.43805C23.5497 8.27041 24.6238 10.6838 24.7749 13.2372C24.9259 15.7906 24.1439 18.3121 22.572 20.3405C21.0001 22.3689 18.7435 23.7688 16.2157 24.2823C13.7968 24.7958 11.2729 24.4498 9.08555 23.3047C8.83159 23.1591 8.5501 23.0667 8.25863 23.0338C7.96716 23.0009 7.67201 23.0275 7.39153 23.1127C6.31934 23.4209 5.22568 23.6448 4.02483 23.9212ZM6.97336 10.6892C7.14867 11.4647 7.36336 12.231 7.61665 12.985C8.19463 14.3222 9.0494 15.5236 10.1256 16.5128C11.6814 18.2131 13.648 19.4931 15.8404 20.2325C18.2636 20.934 19.9683 20.3389 21.1799 18.4152C21.2951 18.2801 21.3725 18.118 21.4045 17.944C21.4365 17.77 21.422 17.5907 21.3624 17.424C21.3027 17.2574 21.2 17.1094 21.0645 16.9943C20.929 16.8793 20.7655 16.801 20.5902 16.7681C20.0641 16.6432 19.5452 16.491 19.0355 16.3114C18.6079 16.0561 18.0963 15.9771 17.6109 16.0924C17.1255 16.2077 16.7052 16.5082 16.4408 16.9279C16.318 17.113 16.127 17.2425 15.9087 17.2901C15.6905 17.3378 15.4621 17.299 15.2721 17.1822C13.5062 16.2387 11.9808 14.9092 10.8118 13.2933C10.6822 13.1285 10.6135 12.9241 10.6174 12.7152C10.6213 12.5062 10.6975 12.3053 10.8332 12.1454C11.0335 11.9376 11.2065 11.705 11.3479 11.4541C11.5071 11.1657 11.5637 10.8329 11.5087 10.5086C11.1669 9.58761 10.7732 8.68631 10.3293 7.80909C10.2739 7.68974 10.1923 7.58394 10.0905 7.4998C9.98874 7.41566 9.86928 7.35491 9.74088 7.32233C9.61248 7.28974 9.47835 7.2856 9.34829 7.31091C9.21823 7.33621 9.09554 7.39039 8.98909 7.46867C8.42909 7.81917 7.95666 8.29122 7.60749 8.84905C7.25831 9.40688 7.0415 10.0362 6.97336 10.6892Z" fill="black" />
</svg>