<svg width="23" height="22" viewBox="0 0 23 22" fill="none" xmlns="http://www.w3.org/2000/svg">
  <g clip-path="url(#clip0_2080_3386)">
    <path d="M19.1778 4.22586C18.7096 3.75745 18.1537 3.38587 17.5419 3.13235C16.9301 2.87884 16.2743 2.74835 15.612 2.74835C14.9497 2.74835 14.2939 2.87884 13.6821 3.13235C13.0702 3.38587 12.5143 3.75745 12.0462 4.22586L11.0745 5.19753L10.1028 4.22586C9.15711 3.28014 7.87444 2.74884 6.53699 2.74884C5.19954 2.74884 3.91687 3.28014 2.97116 4.22586C2.02544 5.17158 1.49414 6.45424 1.49414 7.79169C1.49414 9.12914 2.02544 10.4118 2.97116 11.3575L3.94282 12.3292L11.0745 19.4609L18.2062 12.3292L19.1778 11.3575C19.6462 10.8893 20.0178 10.3334 20.2713 9.7216C20.5248 9.10976 20.6553 8.45397 20.6553 7.79169C20.6553 7.12941 20.5248 6.47362 20.2713 5.86178C20.0178 5.24995 19.6462 4.69405 19.1778 4.22586V4.22586Z" stroke="black" stroke-linecap="round" stroke-linejoin="round" />
  </g>
  <defs>
    <clipPath id="clip0_2080_3386">
      <rect width="22" height="22" fill="white" transform="translate(0.0742188)" />
    </clipPath>
  </defs>
</svg>