<svg width="104" height="104" viewBox="0 0 104 104" fill="none" xmlns="http://www.w3.org/2000/svg">
<path d="M55.4661 79.7338C54.9248 79.7359 54.3905 79.6113 53.9061 79.3698L29.6394 67.2365C29.0651 66.9471 28.5826 66.5036 28.2459 65.9557C27.9092 65.4077 27.7315 64.7769 27.7328 64.1338C27.7242 63.5171 27.8803 62.9093 28.185 62.373C28.4897 61.8367 28.9319 61.3915 29.4661 61.0832L67.5994 40.2832C68.1007 40.0355 68.6523 39.9067 69.2114 39.9067C69.7705 39.9067 70.3221 40.0355 70.8234 40.2832L95.0901 52.4165C95.6695 52.6923 96.1611 53.1235 96.51 53.6621C96.8588 54.2007 97.0514 54.8256 97.0661 55.4671C97.0747 56.0839 96.9186 56.6917 96.6139 57.228C96.3092 57.7642 95.8669 58.2095 95.3328 58.5178L80.3048 66.6991L78.5714 63.6658L93.5994 55.4671L69.3328 43.3338L31.1994 64.1338L55.4661 76.2671L69.9568 68.3631L71.6901 71.3965L57.1994 79.3178C56.6678 79.6052 56.0703 79.7486 55.4661 79.7338Z" fill="white"/>
<path d="M55.4661 86.6674C54.9248 86.6695 54.3905 86.5448 53.9061 86.3034L29.3447 74.17L30.8874 71.05L55.4661 83.2007L70.2341 75.1407L71.9674 78.1914L57.1994 86.2514C56.6678 86.5387 56.0702 86.6822 55.4661 86.6674Z" fill="white"/>
<path d="M93.9631 62.2021L78.8955 70.4138L80.5544 73.4578L95.6221 65.2461L93.9631 62.2021Z" fill="white"/>
<path d="M55.4658 93.6002C54.9245 93.6024 54.3903 93.4777 53.9058 93.2362L29.3271 80.8082L30.9045 77.7056L55.4658 90.1336L70.2338 82.0736L71.9671 85.1242L57.1992 93.1842C56.6675 93.4716 56.07 93.615 55.4658 93.6002Z" fill="white"/>
<path d="M93.97 69.1398L78.9023 77.3516L80.5613 80.3955L95.6289 72.1838L93.97 69.1398Z" fill="white"/>
<path d="M55.4661 100.533C54.9248 100.535 54.3905 100.41 53.9061 100.169L29.3447 87.8277L30.8874 84.7424L55.4661 97.0664L93.9807 76.2664L95.7141 79.317L57.1994 100.117C56.6678 100.404 56.0702 100.548 55.4661 100.533Z" fill="white"/>
<path d="M72.7999 90.6183H69.3332V70.8063L41.9639 57.4249L43.4892 54.3223L70.8585 67.7036C71.4393 67.9882 71.929 68.4296 72.272 68.9779C72.6151 69.5262 72.7979 70.1595 72.7999 70.8063V90.6183Z" fill="white"/>
<path d="M81.4656 85.9383H77.999V66.1957L50.8203 52.589L52.363 49.4863L79.5416 63.093C80.1192 63.38 80.6053 63.8224 80.9452 64.3705C81.2851 64.9186 81.4653 65.5507 81.4656 66.1957V85.9383Z" fill="white"/>
<path d="M54.8599 48.7062C52.8146 39.6408 47.1293 27.9062 37.2666 22.3075L38.9999 19.2915C52.6239 27.0742 57.1653 43.1942 58.2399 47.9435L54.8599 48.7062Z" fill="white"/>
<path d="M26.0001 74.5336H24.2668C11.8215 74.5336 3.4668 66.1789 3.4668 53.7336C3.4668 45.6562 9.9148 26.7109 22.2388 19.3096L23.9721 22.2909C12.9655 28.9296 6.93346 46.5402 6.93346 53.7336C6.93346 64.2722 13.7281 71.0669 24.2668 71.0669H26.0001V74.5336Z" fill="white"/>
<path d="M39.123 22.533H21.8937L19.259 15.0104C19.1367 14.6412 19.0724 14.2553 19.0684 13.8664C19.0684 12.947 19.4336 12.0652 20.0837 11.4151C20.7338 10.7649 21.6156 10.3997 22.535 10.3997C26.0031 10.3118 29.4009 9.403 32.4497 7.74771C35.263 6.20375 38.3953 5.33167 41.6017 5.19971C42.5211 5.19971 43.4029 5.56494 44.053 6.21507C44.7031 6.86519 45.0684 7.74696 45.0684 8.66637C45.0684 12.4277 40.527 20.1757 39.6257 21.6837L39.123 22.533ZM24.355 19.0664H37.147C39.0364 15.773 41.6017 10.6597 41.6017 8.66637C38.9042 8.79764 36.2748 9.55739 33.923 10.885C30.4173 12.7682 26.5138 13.7901 22.535 13.8664L24.355 19.0664Z" fill="white"/>
<path d="M13.8671 53.7334H10.4004C10.737 48.8048 12.0946 44 14.3871 39.624L17.5244 41.1147C15.453 45.0257 14.2081 49.3209 13.8671 53.7334Z" fill="white"/>
<path d="M15.9303 64.532C14.2737 63.4035 12.9124 61.8936 11.9609 60.1293L15.0116 58.5C15.7058 59.7704 16.692 60.8576 17.8889 61.672L15.9303 64.532Z" fill="white"/>
<path d="M69.3339 5.19971H65.8672V13.8664H69.3339V5.19971Z" fill="white"/>
<path d="M69.3339 20.8003H65.8672V29.467H69.3339V20.8003Z" fill="white"/>
<path d="M79.734 15.6001H71.0674V19.0668H79.734V15.6001Z" fill="white"/>
<path d="M64.1335 15.6001H55.4668V19.0668H64.1335V15.6001Z" fill="white"/>
</svg>
