<svg width="104" height="104" viewBox="0 0 104 104" fill="none" xmlns="http://www.w3.org/2000/svg">
<path d="M87.0995 85.4024L82.0931 28.9812C82.003 27.8646 81.0666 27.0182 79.932 27.0182H69.3789C69.3609 17.6357 61.7252 10 52.3427 10C42.9602 10 35.3245 17.6357 35.3065 27.0182H24.7534C23.6369 27.0182 22.7004 27.8646 22.5924 28.9812L17.5859 85.4024C17.5859 85.4744 17.5859 85.5285 17.5859 85.6005C17.5859 91.8855 23.3667 97 30.4622 97H74.2233C81.3187 97 87.0995 91.8855 87.0995 85.6005C87.0995 85.5285 87.0995 85.4744 87.0995 85.4024ZM52.3427 14.3221C59.3481 14.3221 65.0388 20.0128 65.0569 27.0182H39.6286C39.6466 20.0128 45.3373 14.3221 52.3427 14.3221ZM74.2233 92.6599H30.4622C25.7799 92.6599 21.9621 89.5444 21.908 85.6725L26.7344 31.3403H35.3065V38.922C35.3065 40.1105 36.279 41.083 37.4675 41.083C38.6561 41.083 39.6286 40.1105 39.6286 38.922V31.3403H65.0569V38.922C65.0569 40.1105 66.0293 41.083 67.2179 41.083C68.4065 41.083 69.3789 40.1105 69.3789 38.922V31.3403H77.9511L82.7774 85.6905C82.7234 89.5444 78.9055 92.6599 74.2233 92.6599Z" fill="white"/>
<path d="M61.3287 54.9858L48.5785 67.736L43.374 62.5315C42.5276 61.685 41.1589 61.685 40.3125 62.5315C39.4661 63.3779 39.4661 64.7465 40.3125 65.5929L47.0478 72.3282C47.462 72.7424 48.0203 72.9585 48.5785 72.9585C49.1368 72.9585 49.677 72.7424 50.1093 72.3282L64.3901 58.0473C65.2365 57.2009 65.2365 55.8322 64.3901 54.9858C63.5437 54.1574 62.1751 54.1574 61.3287 54.9858Z" fill="white"/>
</svg>
