<svg width="110" height="104" viewBox="0 0 110 104" fill="none" xmlns="http://www.w3.org/2000/svg">
<path d="M89.9308 54.8387C87.2429 54.8387 84.6895 55.8916 82.7632 57.7957C80.8369 59.7222 79.7618 62.2312 79.7618 64.9194C79.7618 67.6075 80.8145 70.1165 82.7632 72.043C84.7119 73.9471 87.2429 75 89.9308 75C95.4408 75 99.9206 70.4749 99.9206 64.9194C99.9206 59.3638 95.4408 54.8387 89.9308 54.8387ZM89.9308 70.5197C86.8397 70.5197 84.2415 67.966 84.2415 64.9194C84.2415 61.8728 86.8397 59.319 89.9308 59.319C92.977 59.319 95.4408 61.828 95.4408 64.9194C95.4408 68.0107 92.977 70.5197 89.9308 70.5197ZM92.529 21.259C92.1258 20.8781 91.5883 20.6765 91.0283 20.6765H79.5378C78.3058 20.6765 77.2979 21.6846 77.2979 22.9167V41.2858C77.2979 42.5179 78.3058 43.526 79.5378 43.526H97.7703C99.0022 43.526 100.01 42.5179 100.01 41.2858V28.9874C100.01 28.3602 99.7414 27.7554 99.271 27.3298L92.529 21.259ZM95.5304 39.0457H81.7776V25.1344H90.1548L95.5304 29.9731V39.0457ZM35.2332 54.8387C32.5453 54.8387 29.9919 55.8916 28.0656 57.7957C26.1393 59.7222 25.0641 62.2312 25.0641 64.9194C25.0641 67.6075 26.1169 70.1165 28.0656 72.043C30.0143 73.9471 32.5453 75 35.2332 75C40.7432 75 45.223 70.4749 45.223 64.9194C45.223 59.3638 40.7432 54.8387 35.2332 54.8387ZM35.2332 70.5197C32.1421 70.5197 29.5439 67.966 29.5439 64.9194C29.5439 61.8728 32.1421 59.319 35.2332 59.319C38.2794 59.319 40.7432 61.828 40.7432 64.9194C40.7432 68.0107 38.2794 70.5197 35.2332 70.5197ZM20.2932 57.5941H15.7911V51.6353C15.7911 50.4032 14.7831 49.3952 13.5512 49.3952C12.3193 49.3952 11.3113 50.4032 11.3113 51.6353V59.8342C11.3113 61.0663 12.3193 62.0744 13.5512 62.0744H20.2932C21.5251 62.0744 22.5331 61.0663 22.5331 59.8342C22.5331 58.6021 21.5251 57.5941 20.2932 57.5941ZM31.6494 45.3853C31.6494 44.1532 30.6414 43.1452 29.4095 43.1452H2.23987C1.00794 43.1452 0 44.1532 0 45.3853C0 46.6174 1.00794 47.6254 2.23987 47.6254H29.4095C30.6414 47.6254 31.6494 46.6398 31.6494 45.3853ZM6.78681 37.2984L33.9564 37.4552C35.1884 37.4552 36.1963 36.4695 36.2187 35.2375C36.2411 33.983 35.2332 32.9749 34.0012 32.9749L6.8316 32.8181C6.8092 32.8181 6.8092 32.8181 6.8092 32.8181C5.57728 32.8181 4.56933 33.8038 4.56933 35.0358C4.54694 36.2903 5.55488 37.2984 6.78681 37.2984ZM11.3561 27.1281H38.5258C39.7577 27.1281 40.7656 26.1201 40.7656 24.888C40.7656 23.6559 39.7577 22.6478 38.5258 22.6478H11.3561C10.1242 22.6478 9.11627 23.6559 9.11627 24.888C9.11627 26.1201 10.1242 27.1281 11.3561 27.1281ZM109.171 24.1039L93.1338 10.8199C92.7306 10.4839 92.2378 10.3047 91.7003 10.3047H72.8406V2.24014C72.8406 1.00806 71.8326 0 70.6007 0H13.5512C12.3193 0 11.3113 1.00806 11.3113 2.24014V18.638C11.3113 19.8701 12.3193 20.8781 13.5512 20.8781C14.7831 20.8781 15.7911 19.8701 15.7911 18.638V4.48029H68.3832V57.5941H50.0163C48.7844 57.5941 47.7764 58.6021 47.7764 59.8342C47.7764 61.0663 48.7844 62.0744 50.0163 62.0744H77.3651C78.597 62.0744 79.605 61.0663 79.605 59.8342C79.605 58.6021 78.597 57.5941 77.3651 57.5941H72.863V14.7849H90.9163L105.52 26.8817L105.363 57.5493H103.034C101.802 57.5493 100.794 58.5573 100.794 59.7894C100.794 61.0215 101.802 62.0296 103.034 62.0296H107.581C108.813 62.0296 109.821 61.0439 109.821 59.8118L110 25.8512C109.978 25.1792 109.686 24.5296 109.171 24.1039Z" fill="white"/>
</svg>
