<svg width="104" height="104" viewBox="0 0 104 104" fill="none" xmlns="http://www.w3.org/2000/svg">
<path d="M84.5148 41.7504V38.3137C84.5148 30.0884 81.42 22.4452 75.8094 16.7738C70.0591 10.9523 62.1524 7.75977 53.5269 7.75977H50.512C41.8865 7.75977 33.9798 10.9523 28.2295 16.7738C22.6189 22.4452 19.5241 30.0884 19.5241 38.3137V41.7504C12.7156 42.1823 7.30469 47.5156 7.30469 54.0321V59.4029C7.30469 66.1823 13.1748 71.7034 20.3827 71.7034H27.7503C29.0681 71.7034 30.1463 70.6893 30.1463 69.4499V43.9663C30.1463 42.7269 29.0681 41.7128 27.7503 41.7128H24.3161V38.3137C24.3161 23.4593 35.5771 12.2668 50.492 12.2668H53.507C68.4418 12.2668 79.6829 23.4593 79.6829 38.3137V41.7128H76.2487C74.9309 41.7128 73.8527 42.7269 73.8527 43.9663V69.4311C73.8527 70.6705 74.9309 71.6846 76.2487 71.6846H79.603C78.6247 83.4405 70.0192 86.1635 66.0259 86.7832C64.9277 83.6095 61.7531 81.3184 58.0194 81.3184H52.0294C47.3972 81.3184 43.6236 84.8677 43.6236 89.2245C43.6236 93.5813 47.3972 97.1494 52.0294 97.1494H58.0393C61.9128 97.1494 65.1673 94.6705 66.1457 91.3278C68.1024 91.0649 71.1972 90.4076 74.272 88.7175C78.6047 86.3325 83.7361 81.4687 84.4149 71.6658C91.2634 71.2715 96.6943 65.9194 96.6943 59.3842V54.0133C96.7142 47.5156 91.3233 42.1635 84.5148 41.7504ZM25.3942 67.1776H20.4226C15.8503 67.1776 12.1366 63.6846 12.1366 59.3842V54.0133C12.1366 49.7128 15.8503 46.2198 20.4226 46.2198H25.3942V67.1776ZM58.0393 92.6424H52.0294C50.0328 92.6424 48.4155 91.1212 48.4155 89.2433C48.4155 87.3654 50.0328 85.8442 52.0294 85.8442H58.0393C60.036 85.8442 61.6532 87.3654 61.6532 89.2433C61.6532 91.1212 60.036 92.6424 58.0393 92.6424ZM91.9223 59.3842C91.9223 63.6846 88.2086 67.1776 83.6363 67.1776H78.6646V46.2198H83.6363C88.2086 46.2198 91.9223 49.7128 91.9223 54.0133V59.3842Z" fill="white"/>
</svg>
